<?xml version="1.0" encoding="utf-8"?>
<!-- Generator: Adobe Illustrator 22.1.0, SVG Export Plug-In . SVG Version: 6.00 Build 0)  -->
<svg version="1.1" id="Layer_1" xmlns="http://www.w3.org/2000/svg" xmlns:xlink="http://www.w3.org/1999/xlink" x="0px" y="0px"
	 viewBox="0 0 22.8 12" style="enable-background:new 0 0 22.8 12;" xml:space="preserve">
<style type="text/css">
	.st0{clip-path:url(#SVGID_2_);}
	.st1{fill:url(#path3462_1_);}
	.st2{fill:#787BB2;}
	.st3{fill:#FFFFFF;}
</style>
<g>
	<g id="g3440">
		<g>
			<g>
				<defs>
					<path id="SVGID_1_" d="M0,6c0,3.3,5.1,6,11.4,6l0,0c6.3,0,11.4-2.7,11.4-6l0,0c0-3.3-5.1-6-11.4-6l0,0C5.1,0,0,2.7,0,6"/>
				</defs>
				<clipPath id="SVGID_2_">
					<use xlink:href="#SVGID_1_"  style="overflow:visible;"/>
				</clipPath>
				<g id="g3442" class="st0">
					<g id="g3448">
						<g id="g3450">
							
								<radialGradient id="path3462_1_" cx="-876.1364" cy="781.3816" r="3.292182e-02" gradientTransform="matrix(567.278 0 0 -567.278 497019.7188 443262.6875)" gradientUnits="userSpaceOnUse">
								<stop  offset="0" style="stop-color:#AEB1D4"/>
								<stop  offset="0.3" style="stop-color:#AEB1D4"/>
								<stop  offset="0.75" style="stop-color:#484C88"/>
								<stop  offset="1" style="stop-color:#484C88"/>
							</radialGradient>
							<path id="path3462" class="st1" d="M0,6c0,3.3,5.1,6,11.4,6l0,0c6.3,0,11.4-2.7,11.4-6l0,0c0-3.3-5.1-6-11.4-6l0,0
								C5.1,0,0,2.7,0,6"/>
						</g>
					</g>
				</g>
			</g>
		</g>
	</g>
	<g id="g3464">
		<g>
			<g>
				<g id="g3466">
					<g id="g3472" transform="translate(288,27.3594)">
						<path id="path3474" class="st2" d="M-276.6-15.8c6,0,10.9-2.5,10.9-5.5s-4.9-5.5-10.9-5.5c-6,0-10.9,2.5-10.9,5.5
							C-287.6-18.3-282.7-15.8-276.6-15.8"/>
					</g>
				</g>
			</g>
		</g>
	</g>
	<g id="g3476">
		<g>
			<g id="g3478">
				<g id="g3484" transform="translate(161.7344,145.3066)">
					<path id="path3486" d="M-155.6-138.6c0.5,0,0.9-0.1,1.1-0.3c0.2-0.2,0.4-0.5,0.5-0.9c0.1-0.4,0-0.7-0.1-0.8
						c-0.1-0.2-0.5-0.2-0.9-0.2h-0.8l-0.5,2.2L-155.6-138.6L-155.6-138.6z M-158.2-135.9C-158.2-135.9-158.3-135.9-158.2-135.9
						c-0.1-0.1-0.1-0.1-0.1-0.1l1.2-6c0,0,0-0.1,0.1-0.1h2.5c0.8,0,1.4,0.2,1.8,0.6c0.4,0.4,0.5,1,0.3,1.8c0,0.3-0.2,0.6-0.3,0.8
						s-0.3,0.5-0.5,0.7c-0.3,0.3-0.6,0.5-0.9,0.5c-0.3,0.1-0.8,0.2-1.3,0.2h-1l-0.3,1.5c0,0,0,0.1-0.1,0.1H-158.2z"/>
				</g>
				<g id="g3488" transform="translate(159.2236,197.3071)">
					<path id="path3490" class="st3" d="M-153.2-192.8h0.7c0.5,0,0.8,0.1,0.8,0.2c0.1,0.1,0.1,0.4,0,0.8c-0.1,0.4-0.2,0.7-0.4,0.8
						c-0.2,0.2-0.5,0.2-1,0.2h-0.5L-153.2-192.8z M-152-194.2h-2.5c-0.1,0-0.2,0.1-0.2,0.2l-1.2,6c0,0.1,0,0.2,0,0.2
						c0,0,0.1,0.1,0.2,0.1h1.3c0.1,0,0.2-0.1,0.2-0.2l0.3-1.4h0.9c0.5,0,1,0,1.3-0.2c0.3-0.1,0.7-0.3,1-0.6c0.2-0.2,0.4-0.5,0.6-0.7
						c0.2-0.2,0.3-0.5,0.3-0.9c0.2-0.8,0-1.4-0.4-1.9C-150.5-194-151.1-194.2-152-194.2 M-153.8-190.5h0.8c0.5,0,0.9-0.1,1.2-0.3
						c0.2-0.2,0.4-0.5,0.5-1c0.1-0.5,0-0.8-0.1-1c-0.2-0.2-0.5-0.3-1-0.3h-0.9L-153.8-190.5 M-152-194c0.8,0,1.3,0.2,1.7,0.6
						c0.3,0.4,0.5,1,0.3,1.7c0,0.3-0.2,0.5-0.3,0.8s-0.3,0.5-0.5,0.7c-0.2,0.2-0.5,0.4-0.9,0.5c-0.3,0.1-0.7,0.2-1.2,0.2h-1.1
						l-0.3,1.6h-1.3l1.2-6H-152"/>
				</g>
				<g id="g3492" transform="translate(311.583,116.3066)">
					<path id="path3494" d="M-299.3-108.4C-299.3-108.4-299.3-108.4-299.3-108.4c-0.1-0.1-0.1-0.1-0.1-0.1l0.5-2.7
						c0-0.3,0-0.4,0-0.5c0,0-0.2-0.1-0.5-0.1h-0.9l-0.7,3.3c0,0,0,0.1-0.1,0.1h-1.3c0,0-0.1,0-0.1,0c0,0,0-0.1,0-0.1l1.2-6
						c0,0,0-0.1,0.1-0.1h1.3c0,0,0.1,0,0.1,0c0,0,0,0.1,0,0.1l-0.3,1.5h1c0.8,0,1.3,0.1,1.6,0.4c0.3,0.3,0.4,0.8,0.3,1.3l-0.5,2.8
						c0,0,0,0.1-0.1,0.1H-299.3z"/>
				</g>
				<g id="g3496" transform="translate(293.6611,271.0571)">
					<path id="path3498" class="st3" d="M-282.1-269.6h-1.3c-0.1,0-0.2,0.1-0.3,0.2l-1.2,6c0,0.1,0,0.2,0,0.2c0,0,0.1,0.1,0.2,0.1
						h1.3c0.1,0,0.2-0.1,0.2-0.2l0.6-3.2h0.8c0.4,0,0.5,0.1,0.5,0.1c0,0,0,0.1,0,0.4l-0.5,2.7c0,0.1,0,0.2,0,0.2
						c0,0,0.1,0.1,0.2,0.1h1.3c0.1,0,0.2-0.1,0.2-0.2l0.5-2.8c0.1-0.7,0-1.2-0.3-1.5c-0.3-0.3-0.9-0.5-1.7-0.5h-0.9l0.3-1.3
						c0-0.1,0-0.2,0-0.2C-281.9-269.5-282-269.6-282.1-269.6 M-282.1-269.3l-0.3,1.6h1.2c0.7,0,1.2,0.1,1.5,0.4
						c0.3,0.2,0.4,0.7,0.2,1.2l-0.5,2.8h-1.3l0.5-2.7c0-0.3,0-0.5-0.1-0.6c-0.1-0.1-0.3-0.2-0.7-0.2h-1l-0.7,3.4h-1.3l1.2-6
						L-282.1-269.3"/>
				</g>
				<g id="g3500" transform="translate(409.5498,145.3066)">
					<path id="path3502" d="M-393.2-138.6c0.5,0,0.9-0.1,1.1-0.3c0.2-0.2,0.4-0.5,0.5-0.9c0.1-0.4,0-0.7-0.1-0.8
						c-0.1-0.2-0.5-0.2-0.9-0.2h-0.8l-0.5,2.2L-393.2-138.6L-393.2-138.6z M-395.8-135.9C-395.8-135.9-395.9-135.9-395.8-135.9
						c-0.1-0.1-0.1-0.1-0.1-0.1l1.2-6c0,0,0-0.1,0.1-0.1h2.5c0.8,0,1.4,0.2,1.8,0.6c0.4,0.4,0.5,1,0.3,1.8c0,0.3-0.2,0.6-0.3,0.8
						c-0.1,0.2-0.3,0.5-0.5,0.7c-0.3,0.3-0.6,0.5-0.9,0.5c-0.3,0.1-0.8,0.2-1.2,0.2h-1l-0.3,1.5c0,0,0,0.1-0.1,0.1H-395.8z"/>
				</g>
				<g id="g3504" transform="translate(407.0391,197.3071)">
					<path id="path3506" class="st3" d="M-390.8-192.8h0.7c0.5,0,0.8,0.1,0.8,0.2c0.1,0.1,0.1,0.4,0,0.8c-0.1,0.4-0.2,0.7-0.4,0.8
						c-0.2,0.2-0.5,0.2-1,0.2h-0.5L-390.8-192.8z M-389.6-194.2h-2.5c-0.1,0-0.2,0.1-0.2,0.2l-1.2,6c0,0.1,0,0.2,0,0.2
						c0,0,0.1,0.1,0.2,0.1h1.3c0.1,0,0.2-0.1,0.2-0.2l0.3-1.4h0.9c0.5,0,1,0,1.3-0.2s0.7-0.3,1-0.6c0.2-0.2,0.4-0.5,0.6-0.7
						s0.2-0.5,0.3-0.9c0.2-0.8,0-1.4-0.4-1.9C-388.1-194-388.8-194.2-389.6-194.2 M-391.5-190.5h0.8c0.5,0,0.9-0.1,1.2-0.3
						c0.2-0.2,0.4-0.5,0.5-1c0.1-0.5,0-0.8-0.1-1c-0.2-0.2-0.5-0.3-1-0.3h-0.9L-391.5-190.5 M-389.6-194c0.8,0,1.3,0.2,1.7,0.6
						c0.3,0.4,0.5,1,0.3,1.7c0,0.3-0.2,0.5-0.3,0.8s-0.3,0.5-0.5,0.7c-0.3,0.2-0.5,0.4-0.9,0.5c-0.3,0.1-0.7,0.2-1.2,0.2h-1.1
						l-0.3,1.6h-1.3l1.2-6H-389.6"/>
				</g>
			</g>
		</g>
	</g>
</g>
</svg>
